<svg focusable="false" xmlns="http://www.w3.org/2000/svg" viewBox="0 0 30 30"><style>.st0,.st1{fill:currentColor}.st1{opacity:.2}.st2,.st9{fill:none;stroke:currentColor;stroke-width:.4;stroke-linecap:round;stroke-linejoin:round;stroke-miterlimit:10}.st9{stroke-width:.4609}</style><path class="st0 icon__border" d="M15 .5C23 .5 29.5 7 29.5 15S23 29.5 15 29.5.5 23 .5 15 7 .5 15 .5m0-.5C6.7 0 0 6.7 0 15s6.7 15 15 15 15-6.7 15-15S23.3 0 15 0z" id="Circle"></path><g id="Shading"><path class="st1" d="M7.6 7.2h1v2.9h-1zM11 7.2h1v2.9h-1zM14.4 7.2h1v2.9h-1zM17.9 7.2h1v2.9h-1zM21.4 7.2h1v2.9h-1z"></path><path class="st1" d="M24.2 9.4l-.1-.6-1.5-.1v-.9l-.3-.2s.2 1.6.2 2c0 .5-.3.4-.5.6v.1c-.2 1.3-.5 3-1 4.6.1-.1.2-.1.3-.1.3 0 .5.2.5.5s-.2.5-.5.5c-.2 0-.3-.1-.4-.3-.9 3.1-2.2 5.8-4.1 5.8l2.9.3 4-.2.4-.2.1-.3V9.4zm-3 8.4c-.2 0-.4-.2-.4-.4s.2-.4.4-.4.4.2.4.4-.2.4-.4.4z"></path><path class="st0" d="M21 14.9c-.1.2-.1.4-.2.6v-.2c0-.2 0-.3.2-.4z"></path></g><g id="Lines"><path class="st2" d="M7.5 8.6h-1c-.4 0-.7.4-.7.7v11.3c0 .4.3.7.7.7h17c.4 0 .7-.3.7-.7V9.3c0-.4-.3-.7-.7-.7h-1M11 8.6H8.7M14.4 8.6h-2.3M17.9 8.6h-2.4M21.4 8.6H19M24.2 13h-.6M24.2 11.9h-.6"></path><path class="st9" d="M8.2 7.2h-.3c-.2 0-.4.2-.4.4v2.2c0 .2.2.4.4.4h.3c.2 0 .4-.2.4-.4V7.5c0-.2-.2-.3-.4-.3zM11.7 7.2h-.3c-.2 0-.4.2-.4.4v2.2c0 .2.2.4.4.4h.3c.2 0 .4-.2.4-.4V7.5c0-.2-.2-.3-.4-.3zM15.1 7.2h-.3c-.2 0-.4.2-.4.4v2.2c0 .2.2.4.4.4h.3c.2 0 .4-.2.4-.4V7.5c0-.2-.2-.3-.4-.3zM18.6 7.2h-.3c-.2 0-.4.2-.4.4v2.2c0 .2.2.4.4.4h.3c.2 0 .4-.2.4-.4V7.5c0-.2-.2-.3-.4-.3zM22.1 7.2h-.3c-.2 0-.4.2-.4.4v2.2c0 .2.2.4.4.4h.3c.2 0 .4-.2.4-.4V7.5c-.1-.2-.2-.3-.4-.3z"></path><path class="st2" d="M11 11.3h8"></path><g><circle class="st2" cx="8.8" cy="13.1" r=".4"></circle><circle class="st2" cx="11.9" cy="13.1" r=".4"></circle><circle class="st2" cx="15" cy="13.1" r=".4"></circle><circle class="st2" cx="18.1" cy="13.1" r=".4"></circle><circle class="st2" cx="21.2" cy="13.1" r=".4"></circle><g><circle class="st2" cx="8.8" cy="15.3" r=".4"></circle><circle class="st2" cx="11.9" cy="15.3" r=".4"></circle><circle class="st2" cx="15" cy="15.3" r=".4"></circle><circle class="st2" cx="18.1" cy="15.3" r=".4"></circle><circle class="st2" cx="21.2" cy="15.3" r=".4"></circle></g><g><circle class="st2" cx="8.8" cy="17.4" r=".4"></circle><circle class="st2" cx="11.9" cy="17.4" r=".4"></circle><circle class="st2" cx="15" cy="17.4" r=".4"></circle><circle class="st2" cx="18.1" cy="17.4" r=".4"></circle><circle class="st2" cx="21.2" cy="17.4" r=".4"></circle></g><g><circle class="st2" cx="8.8" cy="19.5" r=".4"></circle><circle class="st2" cx="11.9" cy="19.5" r=".4"></circle><circle class="st2" cx="15" cy="19.5" r=".4"></circle></g></g></g></svg>