<svg focusable="false" xmlns="http://www.w3.org/2000/svg" viewBox="0 0 30 30"><path class="icon__border" d="M15 .5A14.5 14.5 0 1 1 .5 15 14.516 14.516 0 0 1 15 .5m0-.5a15 15 0 1 0 15 15A15 15 0 0 0 15 0z" fill="currentColor"></path><path d="M18.8 13.54l-2.34-.05a10.483 10.483 0 0 0 2.32-4.36z" fill="currentColor" opacity=".2"></path><g fill="none" stroke="currentColor" stroke-linecap="round" stroke-linejoin="round" stroke-width=".4"><path d="M18.813 13.537v-4.17a.867.867 0 0 0-.867-.867h-9.57a.867.867 0 0 0-.867.867v5.308l.001.01v3.463l3.98-2.492a.741.741 0 0 1 .393-.113h1.166"></path><path d="M13.877 13.537h7.897a.716.716 0 0 1 .716.716v4.38l-.001.008h.001V21.5l-3.126-1.957a1.264 1.264 0 0 0-.67-.193h-4.817a.716.716 0 0 1-.716-.716v-4.381a.716.716 0 0 1 .716-.716zm.574 1.317h4.521m.742 0h.318m-5.581 1.019h3.597m-3.597 2.034h3.597m-3.597-.989h4.521m.742 0h.318M8.964 9.96h6.184m.742 0h.318m-7.244 1.019h5.26m-5.26 2.034h2.922m-2.922-.988h6.184m.742 0h.318m5.657 3.422h.625m-.625 1.014h.625"></path></g></svg>