<svg aria-hidden="true" focusable="false" viewBox="0 0 540 91" xmlns="http://www.w3.org/2000/svg" fill-rule="evenodd" clip-rule="evenodd" stroke-linejoin="round" stroke-miterlimit="2"><g fill-rule="nonzero"><path d="M328.652 68.493c1.7 1.313 4.172 2.086 7.184 2.086 9.811 0 16.608-13.905 16.608-23.407 0-4.403-1.699-9.346-7.184-9.346-5.252 0-12.128 6.72-14.213 17.921l-2.395 12.746zM321.7 88.689l7.416-39.864c.927-4.867 1.622-9.136 2.085-13.136h3.167l-1.158 8h.154c3.322-5 7.957-8.532 12.901-8.532 7.029 0 9.655 5.815 9.655 11.917 0 12.514-8.574 26.905-20.393 26.905-3.63 0-6.025-1.29-7.416-1.29h-.154l-2.935 16H321.7zM386.048 38.367c-.85-.31-2.163-.541-4.481-.541-10.66 0-19.003 11.895-19.08 23.56-.077 4.867 1.313 9.193 6.334 9.193 6.026 0 12.824-9.038 14.6-18.618l2.627-13.594zm-4.944 35.322c-.078-3 .386-6 .927-10h-.155c-4.249 8-8.96 10.281-13.827 10.281-5.639 0-9.038-4.863-9.038-11.506 0-12.669 9.038-27.46 23.406-27.46 2.626 0 5.562.329 7.493 1.024l-3.94 20.376c-1.313 6.952-1.776 13.285-1.622 17.285h-3.244zM392.305 73.689l4.712-25.412c.927-4.712 1.468-8.588 1.777-12.588h3.013c-.232 3-.541 5-1.005 9h.155c2.24-5 5.948-9.341 10.583-9.341.463 0 1.004-.152 1.39-.152l-.695 3.439a5.002 5.002 0 00-1.236-.134c-4.867 0-10.274 7.783-11.819 15.894l-3.553 19.294h-3.322zM428.147 27.564l-1.622 8.125h8.729l-.618 3h-8.729l-4.094 22.009c-.464 2.471-.773 4.361-.773 6.369 0 2.163 1.005 3.455 3.322 3.455 1.236 0 2.008-.087 2.704-.32l.231 2.699a12.818 12.818 0 01-3.63.539c-4.404 0-6.103-2.937-6.103-6.027 0-2.009.232-3.856.85-6.715l4.171-22.009h-5.33l.541-3h5.407l1.236-6.65 3.708-1.475zM434.79 73.689l4.944-26.648c.85-4.402 1.313-8.352 1.622-11.352h3.167l-1.081 8h.154c3.245-5 7.88-8.571 12.978-8.571 3.63 0 8.266 2.204 8.266 9.233 0 1.854-.309 4.124-.696 6.133l-4.248 23.205h-3.322l4.326-23.262c.309-1.699.541-3.713.541-5.644 0-3.862-1.545-6.762-6.103-6.762-4.944 0-11.973 6.594-13.596 15.555l-3.63 20.113h-3.322zM493.246 43.079c0-3.4-2.384-5.253-5.861-5.253-5.716 0-10.781 6.179-13.098 14.214 9.655.077 18.959-1.545 18.959-8.884v-.077zm-1.602 27.577c-1.931 1.313-5.484 2.781-10.119 2.781-8.652 0-11.665-6.798-11.665-13.905 0-10.66 7.493-24.642 18.076-24.642 6.103 0 8.652 3.94 8.652 8.112 0 9.423-10.814 12.049-22.943 11.972-.386 1.7-.463 6.567.309 9.271 1.314 4.171 4.172 6.256 8.112 6.256 4.094 0 6.875-1.467 8.574-2.471l1.004 2.626zM498.829 73.689l4.712-25.412c.927-4.712 1.468-8.588 1.777-12.588h3.012c-.232 3-.541 5-1.004 9h.155c2.24-5 5.948-9.341 10.582-9.341.463 0 1.005-.152 1.39-.152l-.695 3.439a4.993 4.993 0 00-1.235-.134c-4.867 0-10.274 7.783-11.819 15.894l-3.553 19.294h-3.322zM518.294 68.416c1.313 1.004 3.786 2.085 6.49 2.085 4.867 0 8.188-3.476 8.188-7.724 0-3.708-1.545-5.948-5.021-8.189-3.709-2.394-5.716-5.716-5.716-9.192 0-5.794 4.712-10.506 11.278-10.506 2.549 0 5.021.773 6.103 1.622l-1.237 2.859c-1.158-.696-3.09-1.545-5.252-1.545-4.481 0-7.493 3.167-7.493 6.952 0 3.476 2.008 5.407 5.021 7.493 3.553 2.395 5.716 5.793 5.716 9.578 0 7.493-5.484 11.588-11.896 11.588-3.322 0-6.257-1.236-7.493-2.24l1.312-2.781zM28.897 30.149a1.51 1.51 0 01-.22-.016c-.848-.119-1.557-.885-1.584-1.712-.026-.809-.519-19.863 10.655-24.198 2.82-1.094 5.382-.848 7.613.732 2.682 1.898 4.638 5.647 5.814 11.142.83 3.885.965 7.231.971 7.372.031.827-.631 1.405-1.479 1.291-.848-.115-1.56-.879-1.592-1.706-.133-3.452-1.328-13.008-5.203-15.748-1.241-.878-2.742-.955-4.59-.239-9.579 3.715-9.124 21.605-9.118 21.785.024.754-.528 1.297-1.267 1.297z" fill="currentColor"></path><path d="M52.756 11.402L9.539 24.784s-1.854.527-2.29 1.049c-.477.572-.569 2.118-.569 2.118L0 79.478l50.15 9.396c.003-.062.022.03.025-.032 1.341-25.781 4.444-52.165 3.848-77.466 0-.011-.012-.007-.012-.018-.553-.108-1.118.011-1.255.044z" fill="currentColor"></path><path d="M67.724 18.063s-.073-.397-.298-.541c-.224-.145-.47-.173-.47-.173l-7.078-.528-5.209-5.175a1.529 1.529 0 00-.658-.285L50.15 88.877l27.173-5.882-9.599-64.932z"></path><path d="M34.906 54.468c-.769-1.035-1.664-1.944-2.609-2.75a26.162 26.162 0 00-2.869-2.1 18.476 18.476 0 01-1.779-1.241 8.4 8.4 0 01-1.234-1.188 4.214 4.214 0 01-.712-1.19 3.136 3.136 0 01-.2-1.247 4.062 4.062 0 01.376-1.574c.222-.468.538-.874.936-1.214a4.618 4.618 0 011.446-.816 6.943 6.943 0 011.915-.369 13.843 13.843 0 012.225.052c.717.074 1.396.198 2.027.353a15.86 15.86 0 013.153 1.136l3.345-9.967a9.842 9.842 0 00-1.797-.684 15.947 15.947 0 00-2.325-.464 21.143 21.143 0 00-2.737-.161c-.961.005-1.977.07-3.037.209-2.282.299-4.344.93-6.145 1.83a15.716 15.716 0 00-4.521 3.36 14.856 14.856 0 00-2.892 4.566c-.682 1.693-1.09 3.573-1.179 5.613-.053 1.219.07 2.34.335 3.374a10.992 10.992 0 001.2 2.881 13.69 13.69 0 001.9 2.477c.736.77 1.558 1.478 2.431 2.129a18.384 18.384 0 011.815 1.487c.505.479.905.942 1.214 1.404.309.465.523.927.654 1.405a4.8 4.8 0 01.157 1.495 3.848 3.848 0 01-.335 1.445 3.051 3.051 0 01-.85 1.107 3.227 3.227 0 01-1.335.631c-.519.117-1.113.137-1.777.039a10.742 10.742 0 01-2.247-.61 16.54 16.54 0 01-2.098-.992 20.865 20.865 0 01-3.206-2.216l-2.291 7.599a9.42 9.42 0 001.431 1.441c.575.474 1.239.933 1.972 1.36.743.433 1.56.833 2.429 1.185a20.153 20.153 0 002.943.932l.049.011c2.075.459 4.089.57 5.966.319 1.933-.258 3.71-.901 5.245-1.938 1.569-1.06 2.871-2.522 3.815-4.384.956-1.885 1.534-4.158 1.649-6.795a12.184 12.184 0 00-.593-4.402 12.524 12.524 0 00-1.86-3.538z" fill="#fff"></path><path d="M18.361 27.52a1.512 1.512 0 01-1.499-1.727c.116-.809 2.983-19.864 14.921-24.198 3.013-1.094 5.532-.848 7.485.731 2.347 1.899 3.642 5.648 3.848 11.142.146 3.885-.309 7.232-.329 7.372a1.511 1.511 0 11-2.996-.414c.475-3.452.964-13.008-2.427-15.748-1.086-.878-2.574-.956-4.548-.239-10.234 3.715-12.934 21.605-12.959 21.785a1.514 1.514 0 01-1.496 1.296zM109 51.047c-2.71-1.471-4.104-2.71-4.104-4.413 0-2.168 1.936-3.562 4.955-3.562 2.788 0 5.188.774 6.659 1.471l2.478-7.588c-1.703-1.006-4.878-1.781-8.982-1.781-9.369 0-15.795 5.343-15.795 12.854 0 4.258 3.019 7.51 7.046 9.833 3.252 1.858 4.413 3.175 4.413 5.11 0 2.014-1.626 3.639-4.645 3.639-3.33.078-6.814-1.316-8.75-2.323l-2.633 7.589c2.013 1.393 6.117 2.555 10.531 2.632 9.601.077 16.492-4.723 16.492-13.24 0-4.568-3.484-7.821-7.665-10.221zM147.249 35.097c-4.723 0-8.439 2.245-11.304 5.652l-.155-.077 4.104-21.448h-10.685l-10.376 54.587h10.686l3.561-18.66c1.394-7.046 5.033-11.382 8.44-11.382 2.4 0 3.33 1.626 3.33 3.949 0 1.471-.156 3.252-.465 4.723l-4.026 21.37h10.685l4.181-22.067c.464-2.323.774-5.11.774-6.969 0-6.039-3.175-9.678-8.75-9.678zM174.892 66.378c-3.639 0-5.188-3.097-5.188-6.968 0-6.117 3.175-16.106 8.982-16.106 3.794 0 5.033 3.252 5.033 6.427 0 6.582-3.175 16.647-8.827 16.647zm5.265-31.281c-12.853 0-21.37 11.614-21.37 24.545 0 8.285 5.11 14.943 14.711 14.943 12.621 0 21.138-11.304 21.138-24.545 0-7.665-4.491-14.943-14.479-14.943zM211.749 66.533c-1.936 0-3.252-.62-4.414-1.548l1.781-9.989c1.239-6.659 4.723-11.072 8.44-11.072 3.252 0 4.258 3.019 4.258 5.884 0 6.892-4.104 16.725-10.065 16.725zm10.22-31.436c-4.259 0-8.439 2.323-11.305 6.349h-.154l.619-5.729h-9.446c-.465 3.871-1.316 9.755-2.168 14.169l-7.433 39.101h10.685l2.942-15.795h.232c1.239.774 3.64 1.393 6.272 1.393 12.544 0 20.751-12.853 20.751-25.861 0-7.2-3.175-13.627-10.995-13.627zM248.218 19.766c-3.406 0-6.116 2.71-6.116 6.194 0 3.175 2.012 5.343 5.032 5.343h.155c3.329 0 6.195-2.245 6.272-6.194 0-3.097-2.091-5.343-5.343-5.343zM233.274 73.811h10.686l7.278-37.862h-10.762l-7.202 37.862zM278.415 35.871h-7.433l.387-1.78c.619-3.64 2.787-6.892 6.349-6.892 1.393 0 2.478.232 3.406.542l2.091-8.362c-1.239-.542-3.174-.929-5.807-.929-3.794 0-7.588 1.084-10.453 3.562-3.639 3.097-5.342 7.587-6.195 12.079l-.31 1.78h-4.954l-1.549 8.053h4.956l-5.653 29.887h10.686l5.652-29.887h7.356l1.471-8.053zM304.121 35.949l-6.504 16.956c-1.549 4.104-2.323 6.505-3.175 9.06h-.154c-.155-2.478-.465-5.188-.929-8.982l-1.704-17.034h-11.227l6.427 34.765c.154.774.077 1.239-.233 1.781-1.239 2.4-3.329 4.723-5.807 6.426-2.013 1.471-4.258 2.4-6.039 3.02L277.718 91c2.168-.464 6.659-2.245 10.453-5.807 4.878-4.568 9.369-11.614 14.014-21.215l13.086-28.029h-11.15z" fill="currentColor"></path></g></svg>